<mxfile host="app.diagrams.net" modified="2023-06-07T00:15:53.115Z" agent="Mozilla/5.0 (Windows NT 10.0; Win64; x64) AppleWebKit/537.36 (KHTML, like Gecko) Chrome/113.0.0.0 Safari/537.36 Edg/113.0.1774.57" version="21.3.7" etag="l2YcOLRllk-zwCzAf_12" type="github">
  <diagram name="PÃ¡gina-1" id="zLjyjSn7Ft7B0oz3Z4uP">
    <mxGraphModel>
      <root>
        <mxCell id="0" />
        <mxCell id="1" parent="0" />
      </root>
    </mxGraphModel>
  </diagram>
</mxfile>
